<!DOCTYPE svg PUBLIC "-//W3C//DTD SVG 1.1//EN" "http://www.w3.org/Graphics/SVG/1.1/DTD/svg11.dtd">
<!-- Uploaded to: SVG Repo, www.svgrepo.com, Transformed by: SVG Repo Mixer Tools -->
<svg fill="#ffffff" height="800px" width="800px" version="1.1" id="Layer_1" xmlns="http://www.w3.org/2000/svg" xmlns:xlink="http://www.w3.org/1999/xlink" viewBox="0 0 512 512" xml:space="preserve" stroke="#ffffff">
<g id="SVGRepo_bgCarrier" stroke-width="0"/>
<g id="SVGRepo_tracerCarrier" stroke-linecap="round" stroke-linejoin="round"/>
<g id="SVGRepo_iconCarrier"> <g> <g> <g> <path d="M277.18,467.275H234.82c-4.408,0-7.979,3.571-7.979,7.979s3.571,7.979,7.979,7.979h42.361 c4.408,0,7.979-3.571,7.979-7.979S281.588,467.275,277.18,467.275z"/> <path d="M206.349,367.297h-22.94c-8.239,0-14.941,6.702-14.941,14.941v10.031c0,8.239,6.702,14.941,14.941,14.941h22.94 c8.239,0,14.941-6.702,14.941-14.941v-10.031C221.289,373.999,214.587,367.297,206.349,367.297z M205.331,391.252h-20.906v-7.997 h20.906V391.252z"/> <path d="M208.836,247.519c4.408,0,7.979-3.571,7.979-7.979c0-4.408-3.571-7.979-7.979-7.979h-27.915 c-4.408,0-7.979,3.571-7.979,7.979c0,4.408,3.571,7.979,7.979,7.979H208.836z"/> <path d="M206.349,320.23h-22.94c-8.239,0-14.941,6.702-14.941,14.941v10.032c0,8.239,6.702,14.941,14.941,14.941h22.94 c8.239,0,14.941-6.702,14.941-14.941V335.17C221.289,326.932,214.587,320.23,206.349,320.23z M205.331,344.185h-20.906v-7.998 h20.906V344.185z"/> <path d="M206.349,414.363h-22.94c-8.239,0-14.941,6.702-14.941,14.941v10.032c0,8.237,6.702,14.94,14.941,14.94h22.94 c8.239,0,14.941-6.702,14.941-14.94v-10.032C221.289,421.065,214.587,414.363,206.349,414.363z M205.331,438.318h-20.906v-7.997 h20.906V438.318z"/> <path d="M230.113,87.874h51.774c4.408,0,7.979-3.571,7.979-7.979c0-4.408-3.571-7.979-7.979-7.979h-51.774 c-4.408,0-7.979,3.571-7.979,7.979C222.134,84.302,225.705,87.874,230.113,87.874z"/> <path d="M206.349,273.163h-22.94c-8.239,0-14.941,6.702-14.941,14.941v10.032c0,8.237,6.702,14.94,14.941,14.94h22.94 c8.239,0,14.941-6.702,14.941-14.94v-10.032C221.289,279.865,214.587,273.163,206.349,273.163z M205.331,297.117h-20.906v-7.997 h20.906V297.117z"/> <path d="M328.585,273.163h-22.941c-8.239,0-14.941,6.702-14.941,14.941v10.032c0,8.237,6.702,14.94,14.941,14.94h22.941 c8.239,0,14.941-6.702,14.941-14.94v-10.032C343.526,279.865,336.824,273.163,328.585,273.163z M327.568,297.117h-20.906v-7.997 h20.906V297.117z"/> <path d="M331.078,247.519c4.408,0,7.979-3.571,7.979-7.979c0-4.408-3.571-7.979-7.979-7.979h-27.914 c-4.408,0-7.979,3.571-7.979,7.979c0,4.408,3.571,7.979,7.979,7.979H331.078z"/> <path d="M328.585,367.297h-22.941c-8.239,0-14.941,6.702-14.941,14.941v10.031c0,8.239,6.702,14.941,14.941,14.941h22.941 c8.239,0,14.941-6.702,14.941-14.941v-10.031C343.526,373.999,336.824,367.297,328.585,367.297z M327.568,391.252h-20.906v-7.997 h20.906V391.252z"/> <path d="M328.585,320.23h-22.941c-8.239,0-14.941,6.702-14.941,14.941v10.032c0,8.239,6.702,14.941,14.941,14.941h22.941 c8.239,0,14.941-6.702,14.941-14.941V335.17C343.526,326.932,336.824,320.23,328.585,320.23z M327.568,344.185h-20.906v-7.998 h20.906V344.185z"/> <path d="M337.518,42.528V30.126C337.518,13.514,324.004,0,307.391,0c-16.612,0-30.126,13.514-30.126,30.126v11.646h-94.817 c-23.597,0-42.796,19.198-42.796,42.796v384.636c0,23.597,19.198,42.796,42.796,42.796h147.104 c23.598,0,42.796-19.198,42.796-42.796V84.568C372.347,63.694,357.32,46.274,337.518,42.528z M293.221,30.126h0.001 c0-7.813,6.357-14.169,14.169-14.169c7.813,0,14.168,6.357,14.168,14.169v11.646h-28.338V30.126z M356.39,469.204h-0.001 c0,14.798-12.039,26.838-26.838,26.838H182.448c-14.798,0-26.838-12.039-26.838-26.838V84.568 c0-14.798,12.039-26.838,26.838-26.838h147.104c14.798,0,26.838,12.039,26.838,26.838V469.204z"/> <path d="M308.289,96.03H203.704c-19.43,0-35.237,15.807-35.237,35.237v39.414c0,19.43,15.807,35.237,35.237,35.237h104.585 c19.43,0,35.237-15.807,35.237-35.237v-39.414C343.526,111.837,327.719,96.03,308.289,96.03z M327.568,170.682 c0,10.63-8.649,19.279-19.279,19.279H203.704c-10.63,0-19.279-8.649-19.279-19.279v-39.414c0-10.63,8.649-19.279,19.279-19.279 h104.585c10.63,0,19.279,8.649,19.279,19.279V170.682z"/> <path d="M256,265.948c14.562,0,26.407-11.847,26.407-26.408c0-14.561-11.846-26.407-26.407-26.407 c-14.561,0-26.408,11.846-26.408,26.407C229.592,254.101,241.438,265.948,256,265.948z M256,229.091 c5.762,0,10.449,4.687,10.449,10.449c0,5.763-4.687,10.45-10.449,10.45c-5.763,0-10.45-4.687-10.45-10.45 C245.55,233.778,250.237,229.091,256,229.091z"/> <path d="M229.586,345.202c0,8.239,6.702,14.941,14.94,14.941h22.941c8.237,0,14.94-6.702,14.94-14.941v-10.032 c0-8.239-6.702-14.941-14.94-14.941h-22.941c-8.237,0-14.94,6.702-14.94,14.941V345.202z M245.544,336.187h20.905v7.998h-20.905 V336.187z"/> <path d="M229.586,298.135c0,8.237,6.702,14.94,14.94,14.94h22.941c8.237,0,14.94-6.702,14.94-14.94v-10.032 c0-8.239-6.702-14.941-14.94-14.941h-22.941c-8.237,0-14.94,6.702-14.94,14.941V298.135z M245.544,289.121h20.905v7.997h-20.905 V289.121z"/> <path d="M229.586,439.336c0,8.237,6.702,14.94,14.94,14.94h22.941c8.237,0,14.94-6.702,14.94-14.94v-10.032 c0-8.239-6.702-14.941-14.94-14.941h-22.941c-8.237,0-14.94,6.702-14.94,14.941V439.336z M245.544,430.321h20.905v7.997h-20.905 V430.321z"/> <path d="M328.585,414.363h-22.941c-8.239,0-14.941,6.702-14.941,14.941v10.032c0,8.237,6.702,14.94,14.941,14.94h22.941 c8.239,0,14.941-6.702,14.941-14.94v-10.032C343.526,421.065,336.824,414.363,328.585,414.363z M327.568,438.318h-20.906v-7.997 h20.906V438.318z"/> <path d="M229.586,392.269c0,8.239,6.702,14.941,14.94,14.941h22.941c8.237,0,14.94-6.702,14.94-14.941v-10.031 c0-8.239-6.702-14.941-14.94-14.941h-22.941c-8.237,0-14.94,6.702-14.94,14.941V392.269z M245.544,383.255h20.905v7.997h-20.905 V383.255z"/> </g> </g> </g> </g>
</svg>